# xmcd
#
# Track frame offsets:
#	150
#	11820
#	25757
#	37340
#	48130
#	58877
#	69080
#	79562
#	91665
#	105432
#	116042
#	127950
#	141240
#	154165
#	166675
#	178822
#	191135
#	202392
#	216310
#	227742
#
# Disc length: 3135 seconds
# Revision: 0
# Processed by: cddbd v1.5.2PL0 Copyright (c) Steve Scherf et al.
# Submitted via: dBpowerAMP V12.0
#
DISCID=170c3d14
DTITLE=Jim Reeves - Jim Reeves: 20 Gospel Favourites
DYEAR=1998
DGENRE=Country
TTITLE0=I'll Fly Away 	
TTITLE1=Whispering Hope 	
TTITLE2=An Evening Prayer
TTITLE3=Take My Hand Precious Lord
TTITLE4=Where We'll Never Grow Old	
TTITLE5=A Beautiful Life
TTITLE6=In the Garden
TTITLE7=God Be With You
TTITLE8=Trouble in the Amen Corner
TTITLE9=Scarlet Ribbons
TTITLE10=May the Good Lord Bless and Keep You
TTITLE11=It Is No Secret
TTITLE12=Oh, Gentle Shepherd
TTITLE13=I'd Rather Have Jesus
TTITLE14=He Will
TTITLE15=Precious Memories
TTITLE16=How Long Has It Been
TTITLE17=Have Thine Own Way, Lord
TTITLE18=Where Do I Go from Here
TTITLE19=Teach Me How to Pray
EXTD=
EXTT0=
EXTT1=
EXTT2=
EXTT3=
EXTT4=
EXTT5=
EXTT6=
EXTT7=
EXTT8=
EXTT9=
EXTT10=
EXTT11=
EXTT12=
EXTT13=
EXTT14=
EXTT15=
EXTT16=
EXTT17=
EXTT18=
EXTT19=
PLAYORDER=
